# AST/ASF file generated using VICON BodyLanguage
# -----------------------------------------------
:version 1.10
:name VICON
:units
  mass 1.0
  length 0.45
  angle deg
:documentation
   .ast/.asf automatically generated from VICON data using
   VICON BodyBuilder and BodyLanguage model FoxedUp or BRILLIANT.MOD
:root
   order TX TY TZ RX RY RZ
   axis XYZ
   position 0 0 0  
   orientation 0 0 0 
:bonedata
  begin
     id 1 
     name lhipjoint
     direction 0.643824 -0.71708 0.266994 
     length 2.52133 
     axis 0 0 0  XYZ
  end
  begin
     id 2 
     name lfemur
     direction 0.34202 -0.939693 0  
     length 7.51824  
     axis 0 0 20  XYZ
    dof rx ry rz
    limits (-160.0 20.0)
           (-70.0 70.0)
           (-60.0 70.0)
  end
  begin
     id 3 
     name ltibia
     direction 0.34202 -0.939693 0   
     length 7.3685   
     axis 0 0 20   XYZ
    dof rx
    limits (-10.0 170.0)
  end
  begin
     id 4 
     name lfoot
     direction 0.105419 -0.289636 0.951314   
     length 2.20972   
     axis -90 7.62852e-016 20   XYZ
    dof rx rz
    limits (-45.0 90.0)
           (-70.0 20.0)
  end
  begin
     id 5 
     name ltoes
     direction 1.53549e-011 -4.21833e-011 1   
     length 1.10139   
     axis -90 7.62852e-016 20   XYZ
    dof rx
    limits (-90.0 20.0)
  end
  begin
     id 6 
     name rhipjoint
     direction -0.608823 -0.743445 0.276811   
     length 2.43192  
     axis 0 0 0  XYZ 
  end
  begin
     id 7 
     name rfemur
     direction -0.34202 -0.939693 0   
     length 7.69715   
     axis 0 0 -20   XYZ
    dof rx ry rz
    limits (-160.0 20.0)
           (-70.0 70.0)
           (-70.0 60.0)
  end
  begin
     id 8 
     name rtibia
     direction -0.34202 -0.939693 0   
     length 7.44924   
     axis 0 0 -20   XYZ
    dof rx
    limits (-10.0 170.0)
 end
 begin
     id 9 
     name rfoot
     direction -0.103614 -0.284677 0.953007   
     length 2.22623  
     axis -90 -7.62852e-016 -20   XYZ
    dof rx rz
    limits (-45.0 90.0)
           (-20.0 70.0)
  end
  begin
     id 10 
     name rtoes
     direction -1.53537e-011 -4.22026e-011 1   
     length 1.11   
     axis -90 -7.62852e-016 -20   XYZ
    dof rx
    limits (-90.0 20.0)
  end
  begin
     id 11 
     name lowerback
     direction -0.0101212 0.99662 -0.0815298   
     length 2.08277   
     axis 0 0 0   XYZ
    dof rx ry rz
    limits (-20.0 45.0)
           (-30.0 30.0)
           (-30.0 30.0)
  end
  begin
     id 12 
     name upperback
     direction 0.024314 0.999591 -0.0150645   
     length 2.08524   
     axis 0 0 0   XYZ
    dof rx ry rz
    limits (-20.0 45.0)
           (-30.0 30.0)
           (-30.0 30.0)
  end
  begin
     id 13 
     name thorax
     direction 0.0285959 0.999323 0.0231357   
     length 2.09645   
     axis 0 0 0   XYZ
    dof rx ry rz
    limits (-20.0 45.0)
           (-30.0 30.0)
           (-30.0 30.0)
  end
  begin
     id 14 
     name lowerneck
     direction -0.065512 0.979301 0.191515   
     length 1.63798   
     axis 0 0 0   XYZ
    dof rx ry rz
    limits (-20.0 45.0)
           (-30.0 30.0)
           (-30.0 30.0)
  end
  begin
     id 15 
     name upperneck
     direction 0.0498479 0.98191 -0.182667   
     length 1.68731   
     axis 0 0 0   XYZ
    dof rx ry rz
    limits (-20.0 45.0)
           (-30.0 30.0)
           (-30.0 30.0)
  end
  begin
     id 16
     name head
     direction 0.0230358 0.996257 -0.0833175  
     length 1.69785  
     axis 0 0 0   XYZ
    dof rx ry rz
    limits (-20.0 45.0)
           (-30.0 30.0)
           (-30.0 30.0)
  end
  begin
     id 17 
     name lclavicle
     direction 0.967963 0.201165 -0.150269  
     length 3.63976  
     axis 0 0 0   XYZ
    dof ry rz
    limits (-20.0 10.0)
           (0.0 20.0)
  end
  begin
     id 18 
     name lhumerus
     direction 1 -4.48954e-011 -2.92837e-028   
     length 5.32462   
     axis 180 -30 -90   XYZ
    dof rx ry rz
    limits (-60.0 90.0)
           (-90.0 90.0)
           (-90.0 90.0)
  end
  begin
     id 19
     name lradius
     direction 1 -4.48958e-011 -6.39511e-027   
     length 3.48402   
     axis 180 -30 -90   XYZ
    dof rx
    limits (-10.0 170.0)
  end
  begin
     id 20
     name lwrist
     direction 1 -4.48975e-011 -1.1413e-026   
     length 1.74201   
     axis 6.88575e-015 90 90   XYZ
    dof ry
    limits (-180.0 0.0)
 end
  begin
     id 21 
     name lhand
     direction 1 -4.48899e-011 -2.28192e-026   
     length 0.572476   
     axis 1.45643e-014 90 90   XYZ
    dof rx rz
    limits (-90.0 90.0)
           (-45.0 45.0)
  end
  begin
     id 22 
     name lfingers
     direction 1 -4.49155e-011 -4.5684e-026   
     length 0.461545   
     axis 2.91283e-014 90 90   XYZ
    dof rx
    limits (0.0 90.0)
  end
  begin
     id 23
     name lthumb
     direction 0.707107 -6.34943e-011 0.707107   
     length 0.662688   
     axis -90 45 -2.25915e-014   XYZ
    dof rx rz
    limits (-45.0 45.0)
           (-45.0 45.0)
  end
  begin
     id 24 
     name rclavicle
     direction -0.964103 0.264019 -0.0282629   
     length 3.54491  
     axis 0 0 0   XYZ 
    dof ry rz
    limits (-10.0 20.0)
           (-20.0 0.0)
  end
  begin
     id 25 
     name rhumerus
     direction -1 -4.48964e-011 -2.45032e-027  
     length 5.33589   
     axis 180 30 90   XYZ
    dof rx ry rz
    limits (-90.0 60.0)
           (-90.0 90.0)
           (-90.0 90.0)
  end
  begin
     id 26 
     name rradius
     direction -1 -4.48987e-011 -1.55093e-027   
     length 3.64134   
     axis 180 30 90   XYZ
    dof rx
    limits (-10.0 170.0)
  end
  begin
     id 27 
     name rwrist
     direction -1 -4.4897e-011 -1.14128e-026   
     length 1.82067   
     axis 6.88575e-015 -90 -90   XYZ
    dof ry
    limits (-180.0 0.0)
  end
  begin
     id 28
     name rhand
     direction -1 -4.49021e-011 -2.28301e-026   
     length 0.734811   
     axis 1.45643e-014 -90 -90   XYZ
    dof rx rz
    limits (-90.0 90.0)
           (-45.0 45.0)
  end
  begin
     id 29
     name rfingers
     direction -1 -4.48862e-011 -4.56319e-026   
     length 0.592424   
     axis 2.91283e-014 -90 -90   XYZ
    dof rx
    limits (0.0 90.0)
  end
  begin
     id 30
     name rthumb
     direction -0.707107 -6.34978e-011 0.707107   
     length 0.850605   
     axis -90 -45 2.25915e-014   XYZ
    dof rx rz
    limits (-45.0 45.0)
           (-45.0 45.0)
  end
:hierarchy
  begin
    root lhipjoint rhipjoint lowerback
    lhipjoint lfemur
    lfemur ltibia
    ltibia lfoot
    lfoot ltoes
    rhipjoint rfemur
    rfemur rtibia
    rtibia rfoot
    rfoot rtoes
    lowerback upperback
    upperback thorax
    thorax lowerneck lclavicle rclavicle
    lowerneck upperneck
    upperneck head
    lclavicle lhumerus
    lhumerus lradius
    lradius lwrist
    lwrist lhand lthumb
    lhand lfingers
    rclavicle rhumerus
    rhumerus rradius
    rradius rwrist
    rwrist rhand rthumb
    rhand rfingers
  end

#!OML:ASF F:\VICON\USERDATA\INSTALL\rory3\rory3.ASF
:FULLY-SPECIFIED
:DEGREES
237
root -1.57699 17.4959 -0.571651 11.1838 -34.7339 8.78248
lowerback 12.0047 -1.78852 1.54566
upperback 7.41577 -2.35206 5.61536
thorax 1.24235 -1.32198 5.25737
lowerneck -8.51979 -3.86695 -12.2247
upperneck 37.0892 -4.08977 1.26141
head 14.5758 -3.39152 2.04626
rclavicle 3.49861e-014 -4.77083e-014
rhumerus -45.2514 6.91656 -82.84
rradius 32.6256
rwrist 52.4114
rhand -50.0265 3.59369
rfingers 7.12502
rthumb -22.6145 -25.1016
lclavicle 3.49861e-014 -4.77083e-014
lhumerus -31.7141 -8.86106 94.0777
lradius 66.9683
lwrist -2.04567
lhand -27.1919 19.4482
lfingers 7.12502
lthumb -0.605409 49.4271
rfemur -41.0703 -6.98448 4.67249
rtibia 36.3756
rfoot -9.58876 -4.62204
rtoes 3.94506
lfemur -43.2849 -3.45281 -15.189
ltibia 45.0416
lfoot 8.73192 -24.3058
ltoes -3.06712
238
root -1.62253 17.5186 -0.635154 11.163 -33.5083 9.08447
lowerback 12.2751 -2.06066 2.06339
upperback 7.53379 -2.65081 5.68636
thorax 1.2285 -1.45624 5.0813
lowerneck -8.53778 -3.94362 -12.1609
upperneck 37.0095 -4.20393 1.28056
head 14.5494 -3.41834 2.02737
rclavicle -2.38542e-014 -3.33958e-014
rhumerus -44.9409 7.06815 -83.3547
rradius 32.7177
rwrist 51.4663
rhand -49.9525 3.55686
rfingers 7.12502
rthumb -22.5436 -25.147
lclavicle -2.38542e-014 -3.33958e-014
lhumerus -31.654 -9.60786 94.4621
lradius 67.5711
lwrist -1.9879
lhand -28.9131 17.0447
lfingers 7.12502
lthumb -2.26782 47.0124
rfemur -40.8371 -7.94982 4.76707
rtibia 36.3044
rfoot -9.70904 -4.8154
rtoes 3.1443
lfemur -44.726 -3.2697 -15.503
ltibia 46.4057
lfoot 10.7941 -23.4883
ltoes -6.96465
239
root -1.6632 17.541 -0.698584 11.3675 -32.2369 9.09885
lowerback 12.4883 -2.32911 2.75602
upperback 7.60478 -2.92466 5.88459
thorax 1.19076 -1.57463 4.93998
lowerneck -8.61518 -4.02262 -12.2711
upperneck 37.0909 -4.35962 1.52569
head 14.6289 -3.46383 2.12516
rclavicle 3.18055e-015 1.59028e-015
rhumerus -44.5446 6.56853 -83.1209
rradius 32.1265
rwrist 53.2619
rhand -51.1244 3.81821
rfingers 7.12502
rthumb -23.6679 -24.7448
lclavicle 3.18055e-015 1.59028e-015
lhumerus -31.6077 -10.3675 94.9212
lradius 68.1771
lwrist -2.01579
lhand -29.3679 15.7537
lfingers 7.12502
lthumb -2.70705 45.7163
rfemur -40.686 -8.80885 5.07249
rtibia 36.2671
rfoot -9.79703 -5.04168
rtoes 1.56107
lfemur -46.289 -2.95404 -15.6868
ltibia 47.9038
lfoot 11.5827 -23.1303
ltoes -13.6314
240
root -1.70752 17.5644 -0.763132 11.3666 -31.4968 9.36529
lowerback 12.7271 -2.34761 2.98808
upperback 7.7077 -2.91572 5.99686
thorax 1.16833 -1.56584 4.93798
lowerneck -8.7628 -4.16898 -12.4493
upperneck 37.2981 -4.66545 1.97384
head 14.8074 -3.55982 2.29626
rclavicle -3.81667e-014 0
rhumerus -44.2738 6.30251 -83.254
rradius 32.0339
rwrist 52.8471
rhand -51.2712 4.26217
rfingers 7.12502
rthumb -23.8087 -24.2825
lclavicle -3.81667e-014 0
lhumerus -31.6264 -11.283 95.469
lradius 68.762
lwrist -2.114
lhand -29.4805 15.2513
lfingers 7.12502
lthumb -2.81577 45.2125
rfemur -40.5887 -9.2146 5.06142
rtibia 36.1479
rfoot -9.71441 -5.19603
rtoes -0.195254
lfemur -47.6922 -2.34276 -16.2162
ltibia 49.5971
lfoot 11.4686 -22.9206
ltoes -18.1225
241
root -1.753 17.5765 -0.854078 11.5626 -30.7909 9.67431
lowerback 13.0671 -2.28861 2.95505
upperback 7.65444 -2.80964 6.16725
thorax 0.934896 -1.51657 5.14505
lowerneck -8.79728 -4.3625 -12.4126
upperneck 37.4215 -4.98947 2.08981
head 14.9079 -3.67232 2.28995
rclavicle 8.42847e-014 -1.74931e-014
rhumerus -44.0746 5.94362 -83.3783
rradius 32.0542
rwrist 52.1485
rhand -51.258 4.55735
rfingers 7.12502
rthumb -23.7961 -23.989
lclavicle 8.42847e-014 -1.74931e-014
lhumerus -31.707 -12.2921 96.0394
lradius 69.2508
lwrist -2.36529
lhand -29.2441 14.8416
lfingers 7.12502
lthumb -2.58742 44.8056
rfemur -40.8047 -9.37526 4.99448
rtibia 36.0218
rfoot -10.0323 -5.63033
rtoes 0.912105
lfemur -49.4185 -1.56102 -16.7686
ltibia 51.4889
lfoot 11.0381 -22.8711
ltoes -19.2397
